<mxfile host="app.diagrams.net" agent="Mozilla/5.0 (Windows NT 10.0; Win64; x64) AppleWebKit/537.36 (KHTML, like Gecko) Chrome/127.0.0.0 Safari/537.36 Edg/127.0.0.0" version="24.7.6" pages="3">
  <diagram id="C5RBs43oDa-KdzZeNtuy" name="Ejercicio1-CompararNúmeros">
    <mxGraphModel dx="1829" dy="567" grid="1" gridSize="10" guides="1" tooltips="1" connect="1" arrows="1" fold="1" page="1" pageScale="1" pageWidth="827" pageHeight="1169" math="0" shadow="0">
      <root>
        <mxCell id="WIyWlLk6GJQsqaUBKTNV-0" />
        <mxCell id="WIyWlLk6GJQsqaUBKTNV-1" parent="WIyWlLk6GJQsqaUBKTNV-0" />
        <mxCell id="eHA6sxWB_o8vhbipbkf3-0" value="&lt;font style=&quot;font-size: 24px;&quot;&gt;Ejercicio 1: Calcular el mayor de 2 números&lt;br&gt;&lt;br&gt;Entradas: 2 números DIFERENTES, (&#39;a&#39; y &#39;b&#39;)&lt;br&gt;Salidas: El número mayor entre &#39;a&#39; y &#39;b&#39;&lt;br&gt;&lt;br&gt;Proceso:&lt;/font&gt;" style="text;html=1;align=left;verticalAlign=middle;whiteSpace=wrap;rounded=0;" vertex="1" parent="WIyWlLk6GJQsqaUBKTNV-1">
          <mxGeometry x="21" y="20" width="610" height="150" as="geometry" />
        </mxCell>
        <mxCell id="eHA6sxWB_o8vhbipbkf3-1" value="Inicio" style="ellipse;whiteSpace=wrap;html=1;" vertex="1" parent="WIyWlLk6GJQsqaUBKTNV-1">
          <mxGeometry x="350" y="160" width="80" height="50" as="geometry" />
        </mxCell>
        <mxCell id="eHA6sxWB_o8vhbipbkf3-2" value="Leer &#39;a&#39;&lt;br&gt;Leer &#39;b&#39;" style="shape=parallelogram;perimeter=parallelogramPerimeter;whiteSpace=wrap;html=1;fixedSize=1;" vertex="1" parent="WIyWlLk6GJQsqaUBKTNV-1">
          <mxGeometry x="340" y="240" width="100" height="40" as="geometry" />
        </mxCell>
        <mxCell id="eHA6sxWB_o8vhbipbkf3-3" value="" style="endArrow=classic;html=1;rounded=0;exitX=0.5;exitY=1;exitDx=0;exitDy=0;entryX=0.5;entryY=0;entryDx=0;entryDy=0;" edge="1" parent="WIyWlLk6GJQsqaUBKTNV-1" source="eHA6sxWB_o8vhbipbkf3-1" target="eHA6sxWB_o8vhbipbkf3-2">
          <mxGeometry width="50" height="50" relative="1" as="geometry">
            <mxPoint x="400" y="340" as="sourcePoint" />
            <mxPoint x="450" y="290" as="targetPoint" />
          </mxGeometry>
        </mxCell>
        <mxCell id="eHA6sxWB_o8vhbipbkf3-4" value="a &amp;gt; b" style="rhombus;whiteSpace=wrap;html=1;" vertex="1" parent="WIyWlLk6GJQsqaUBKTNV-1">
          <mxGeometry x="360" y="310" width="60" height="60" as="geometry" />
        </mxCell>
        <mxCell id="eHA6sxWB_o8vhbipbkf3-5" value="" style="endArrow=classic;html=1;rounded=0;exitX=0.5;exitY=1;exitDx=0;exitDy=0;" edge="1" parent="WIyWlLk6GJQsqaUBKTNV-1" source="eHA6sxWB_o8vhbipbkf3-2" target="eHA6sxWB_o8vhbipbkf3-4">
          <mxGeometry width="50" height="50" relative="1" as="geometry">
            <mxPoint x="430" y="400" as="sourcePoint" />
            <mxPoint x="480" y="350" as="targetPoint" />
          </mxGeometry>
        </mxCell>
        <mxCell id="eHA6sxWB_o8vhbipbkf3-6" value="mayor = a" style="rounded=0;whiteSpace=wrap;html=1;" vertex="1" parent="WIyWlLk6GJQsqaUBKTNV-1">
          <mxGeometry x="330" y="430" width="120" height="20" as="geometry" />
        </mxCell>
        <mxCell id="eHA6sxWB_o8vhbipbkf3-7" value="" style="endArrow=classic;html=1;rounded=0;exitX=0.5;exitY=1;exitDx=0;exitDy=0;entryX=0.5;entryY=0;entryDx=0;entryDy=0;" edge="1" parent="WIyWlLk6GJQsqaUBKTNV-1" source="eHA6sxWB_o8vhbipbkf3-4" target="eHA6sxWB_o8vhbipbkf3-6">
          <mxGeometry width="50" height="50" relative="1" as="geometry">
            <mxPoint x="430" y="450" as="sourcePoint" />
            <mxPoint x="480" y="400" as="targetPoint" />
          </mxGeometry>
        </mxCell>
        <mxCell id="eHA6sxWB_o8vhbipbkf3-8" value="Verdadera" style="edgeLabel;html=1;align=center;verticalAlign=middle;resizable=0;points=[];" vertex="1" connectable="0" parent="eHA6sxWB_o8vhbipbkf3-7">
          <mxGeometry x="-0.4305" y="-2" relative="1" as="geometry">
            <mxPoint as="offset" />
          </mxGeometry>
        </mxCell>
        <mxCell id="eHA6sxWB_o8vhbipbkf3-9" value="mayor = b" style="rounded=0;whiteSpace=wrap;html=1;" vertex="1" parent="WIyWlLk6GJQsqaUBKTNV-1">
          <mxGeometry x="490" y="430" width="120" height="20" as="geometry" />
        </mxCell>
        <mxCell id="eHA6sxWB_o8vhbipbkf3-10" value="" style="endArrow=classic;html=1;rounded=0;entryX=0.5;entryY=0;entryDx=0;entryDy=0;exitX=1;exitY=0.5;exitDx=0;exitDy=0;edgeStyle=orthogonalEdgeStyle;" edge="1" parent="WIyWlLk6GJQsqaUBKTNV-1" source="eHA6sxWB_o8vhbipbkf3-4" target="eHA6sxWB_o8vhbipbkf3-9">
          <mxGeometry width="50" height="50" relative="1" as="geometry">
            <mxPoint x="430" y="450" as="sourcePoint" />
            <mxPoint x="480" y="400" as="targetPoint" />
          </mxGeometry>
        </mxCell>
        <mxCell id="eHA6sxWB_o8vhbipbkf3-11" value="Falso" style="edgeLabel;html=1;align=center;verticalAlign=middle;resizable=0;points=[];" vertex="1" connectable="0" parent="eHA6sxWB_o8vhbipbkf3-10">
          <mxGeometry x="0.0214" y="-1" relative="1" as="geometry">
            <mxPoint as="offset" />
          </mxGeometry>
        </mxCell>
        <mxCell id="eHA6sxWB_o8vhbipbkf3-12" value="Imprimir mayor" style="shape=parallelogram;perimeter=parallelogramPerimeter;whiteSpace=wrap;html=1;fixedSize=1;" vertex="1" parent="WIyWlLk6GJQsqaUBKTNV-1">
          <mxGeometry x="340" y="510" width="100" height="40" as="geometry" />
        </mxCell>
        <mxCell id="eHA6sxWB_o8vhbipbkf3-13" value="" style="endArrow=classic;html=1;rounded=0;exitX=0.5;exitY=1;exitDx=0;exitDy=0;entryX=0.5;entryY=0;entryDx=0;entryDy=0;" edge="1" parent="WIyWlLk6GJQsqaUBKTNV-1" source="eHA6sxWB_o8vhbipbkf3-6" target="eHA6sxWB_o8vhbipbkf3-12">
          <mxGeometry width="50" height="50" relative="1" as="geometry">
            <mxPoint x="440" y="510" as="sourcePoint" />
            <mxPoint x="490" y="460" as="targetPoint" />
          </mxGeometry>
        </mxCell>
        <mxCell id="eHA6sxWB_o8vhbipbkf3-14" value="" style="endArrow=classic;html=1;rounded=0;exitX=0.5;exitY=1;exitDx=0;exitDy=0;entryX=0.5;entryY=0;entryDx=0;entryDy=0;edgeStyle=orthogonalEdgeStyle;" edge="1" parent="WIyWlLk6GJQsqaUBKTNV-1" source="eHA6sxWB_o8vhbipbkf3-9" target="eHA6sxWB_o8vhbipbkf3-12">
          <mxGeometry width="50" height="50" relative="1" as="geometry">
            <mxPoint x="440" y="510" as="sourcePoint" />
            <mxPoint x="490" y="460" as="targetPoint" />
          </mxGeometry>
        </mxCell>
        <mxCell id="eHA6sxWB_o8vhbipbkf3-15" value="Fin" style="ellipse;whiteSpace=wrap;html=1;" vertex="1" parent="WIyWlLk6GJQsqaUBKTNV-1">
          <mxGeometry x="350" y="585" width="80" height="40" as="geometry" />
        </mxCell>
        <mxCell id="eHA6sxWB_o8vhbipbkf3-17" value="" style="endArrow=classic;html=1;rounded=0;exitX=0.5;exitY=1;exitDx=0;exitDy=0;entryX=0.5;entryY=0;entryDx=0;entryDy=0;" edge="1" parent="WIyWlLk6GJQsqaUBKTNV-1" source="eHA6sxWB_o8vhbipbkf3-12" target="eHA6sxWB_o8vhbipbkf3-15">
          <mxGeometry width="50" height="50" relative="1" as="geometry">
            <mxPoint x="440" y="610" as="sourcePoint" />
            <mxPoint x="490" y="560" as="targetPoint" />
          </mxGeometry>
        </mxCell>
        <mxCell id="eHA6sxWB_o8vhbipbkf3-18" value="&lt;font style=&quot;font-size: 18px;&quot;&gt;Pseudocódigo:&lt;/font&gt;&lt;div style=&quot;font-size: 18px;&quot;&gt;&lt;font style=&quot;font-size: 18px;&quot;&gt;&lt;br&gt;&lt;/font&gt;&lt;/div&gt;&lt;div style=&quot;font-size: 18px;&quot;&gt;algoritmo encontrarNumeroMayor&lt;br&gt;&lt;br&gt;entradas&lt;br&gt;enteros a, b&lt;br&gt;&lt;br&gt;salidas&lt;br&gt;entero mayor&lt;br&gt;&lt;br&gt;inicio&lt;br&gt;&lt;span style=&quot;white-space: pre;&quot;&gt;&#x9;&lt;/span&gt;mensajeEnPantalla(&#39;Ingresa el primer valor&#39;)&lt;br&gt;&lt;/div&gt;&lt;div style=&quot;font-size: 18px;&quot;&gt;&lt;span style=&quot;white-space: pre;&quot;&gt;&#x9;&lt;/span&gt;leer(a)&lt;br&gt;&lt;span style=&quot;white-space: pre;&quot;&gt;&#x9;&lt;/span&gt;mensajeEnPantalla(&#39;Ingresa el segundo valor&#39;)&lt;br&gt;&lt;span style=&quot;white-space: pre;&quot;&gt;&#x9;&lt;/span&gt;leer(b)&lt;br&gt;&lt;br&gt;&lt;span style=&quot;white-space: pre;&quot;&gt;&#x9;&lt;/span&gt;si a &amp;gt; b entonces&lt;br&gt;&lt;span style=&quot;white-space: pre;&quot;&gt;&#x9;&lt;/span&gt;&lt;span style=&quot;white-space: pre;&quot;&gt;&#x9;&lt;/span&gt;mayor = a&lt;br&gt;&lt;span style=&quot;white-space: pre;&quot;&gt;&#x9;&lt;/span&gt;si no entonces&lt;br&gt;&lt;span style=&quot;white-space: pre;&quot;&gt;&#x9;&lt;/span&gt;&lt;span style=&quot;white-space: pre;&quot;&gt;&#x9;&lt;/span&gt;mayor = b&lt;br&gt;&lt;br&gt;&lt;span style=&quot;white-space: pre;&quot;&gt;&#x9;&lt;/span&gt;mensajeEnPantalla(mayor)&lt;br&gt;&lt;/div&gt;&lt;div style=&quot;font-size: 18px;&quot;&gt;fin&lt;br&gt;&lt;br&gt;a = 5&lt;br&gt;b = 4&lt;br&gt;&lt;br&gt;mayor = a&lt;br&gt;&lt;br&gt;&lt;br&gt;a = 2&lt;br&gt;b = 5&lt;br&gt;&lt;br&gt;mayor = b&lt;br&gt;&lt;br&gt;&lt;br&gt;a = 5&lt;br&gt;b = 5&lt;br&gt;Notas sobre qué podríamos mejorar si los valores son iguales:&lt;br&gt;&lt;br&gt;- Validar que no se meta el mismo valor.&lt;br&gt;- Agregar otra toma de decisión.&lt;/div&gt;" style="text;html=1;align=left;verticalAlign=top;whiteSpace=wrap;rounded=0;" vertex="1" parent="WIyWlLk6GJQsqaUBKTNV-1">
          <mxGeometry x="-100" y="210" width="430" height="520" as="geometry" />
        </mxCell>
        <mxCell id="eHA6sxWB_o8vhbipbkf3-19" value="comparar2Numeros" style="shape=process;whiteSpace=wrap;html=1;backgroundOutline=1;" vertex="1" parent="WIyWlLk6GJQsqaUBKTNV-1">
          <mxGeometry x="675" y="170" width="170" height="60" as="geometry" />
        </mxCell>
        <mxCell id="eHA6sxWB_o8vhbipbkf3-20" value="Parámetro&amp;nbsp; &#39;a&#39;&lt;br&gt;Parámetro &#39;b&#39;" style="shape=parallelogram;perimeter=parallelogramPerimeter;whiteSpace=wrap;html=1;fixedSize=1;" vertex="1" parent="WIyWlLk6GJQsqaUBKTNV-1">
          <mxGeometry x="705" y="270" width="110" height="40" as="geometry" />
        </mxCell>
        <mxCell id="eHA6sxWB_o8vhbipbkf3-21" value="a &amp;gt; b" style="rhombus;whiteSpace=wrap;html=1;" vertex="1" parent="WIyWlLk6GJQsqaUBKTNV-1">
          <mxGeometry x="730" y="340" width="60" height="60" as="geometry" />
        </mxCell>
        <mxCell id="eHA6sxWB_o8vhbipbkf3-22" value="" style="endArrow=classic;html=1;rounded=0;exitX=0.5;exitY=1;exitDx=0;exitDy=0;" edge="1" parent="WIyWlLk6GJQsqaUBKTNV-1" source="eHA6sxWB_o8vhbipbkf3-20" target="eHA6sxWB_o8vhbipbkf3-21">
          <mxGeometry width="50" height="50" relative="1" as="geometry">
            <mxPoint x="800" y="430" as="sourcePoint" />
            <mxPoint x="850" y="380" as="targetPoint" />
          </mxGeometry>
        </mxCell>
        <mxCell id="eHA6sxWB_o8vhbipbkf3-23" value="mayor = a" style="rounded=0;whiteSpace=wrap;html=1;" vertex="1" parent="WIyWlLk6GJQsqaUBKTNV-1">
          <mxGeometry x="700" y="460" width="120" height="20" as="geometry" />
        </mxCell>
        <mxCell id="eHA6sxWB_o8vhbipbkf3-24" value="" style="endArrow=classic;html=1;rounded=0;exitX=0.5;exitY=1;exitDx=0;exitDy=0;entryX=0.5;entryY=0;entryDx=0;entryDy=0;" edge="1" parent="WIyWlLk6GJQsqaUBKTNV-1" source="eHA6sxWB_o8vhbipbkf3-21" target="eHA6sxWB_o8vhbipbkf3-23">
          <mxGeometry width="50" height="50" relative="1" as="geometry">
            <mxPoint x="800" y="480" as="sourcePoint" />
            <mxPoint x="850" y="430" as="targetPoint" />
          </mxGeometry>
        </mxCell>
        <mxCell id="eHA6sxWB_o8vhbipbkf3-25" value="Verdadera" style="edgeLabel;html=1;align=center;verticalAlign=middle;resizable=0;points=[];" vertex="1" connectable="0" parent="eHA6sxWB_o8vhbipbkf3-24">
          <mxGeometry x="-0.4305" y="-2" relative="1" as="geometry">
            <mxPoint as="offset" />
          </mxGeometry>
        </mxCell>
        <mxCell id="eHA6sxWB_o8vhbipbkf3-26" value="mayor = b" style="rounded=0;whiteSpace=wrap;html=1;" vertex="1" parent="WIyWlLk6GJQsqaUBKTNV-1">
          <mxGeometry x="860" y="460" width="120" height="20" as="geometry" />
        </mxCell>
        <mxCell id="eHA6sxWB_o8vhbipbkf3-27" value="" style="endArrow=classic;html=1;rounded=0;entryX=0.5;entryY=0;entryDx=0;entryDy=0;exitX=1;exitY=0.5;exitDx=0;exitDy=0;edgeStyle=orthogonalEdgeStyle;" edge="1" parent="WIyWlLk6GJQsqaUBKTNV-1" source="eHA6sxWB_o8vhbipbkf3-21" target="eHA6sxWB_o8vhbipbkf3-26">
          <mxGeometry width="50" height="50" relative="1" as="geometry">
            <mxPoint x="800" y="480" as="sourcePoint" />
            <mxPoint x="850" y="430" as="targetPoint" />
          </mxGeometry>
        </mxCell>
        <mxCell id="eHA6sxWB_o8vhbipbkf3-28" value="Falso" style="edgeLabel;html=1;align=center;verticalAlign=middle;resizable=0;points=[];" vertex="1" connectable="0" parent="eHA6sxWB_o8vhbipbkf3-27">
          <mxGeometry x="0.0214" y="-1" relative="1" as="geometry">
            <mxPoint as="offset" />
          </mxGeometry>
        </mxCell>
        <mxCell id="eHA6sxWB_o8vhbipbkf3-29" value="return mayor" style="shape=parallelogram;perimeter=parallelogramPerimeter;whiteSpace=wrap;html=1;fixedSize=1;" vertex="1" parent="WIyWlLk6GJQsqaUBKTNV-1">
          <mxGeometry x="710" y="540" width="100" height="40" as="geometry" />
        </mxCell>
        <mxCell id="eHA6sxWB_o8vhbipbkf3-30" value="" style="endArrow=classic;html=1;rounded=0;exitX=0.5;exitY=1;exitDx=0;exitDy=0;entryX=0.5;entryY=0;entryDx=0;entryDy=0;" edge="1" parent="WIyWlLk6GJQsqaUBKTNV-1" source="eHA6sxWB_o8vhbipbkf3-23" target="eHA6sxWB_o8vhbipbkf3-29">
          <mxGeometry width="50" height="50" relative="1" as="geometry">
            <mxPoint x="810" y="540" as="sourcePoint" />
            <mxPoint x="860" y="490" as="targetPoint" />
          </mxGeometry>
        </mxCell>
        <mxCell id="eHA6sxWB_o8vhbipbkf3-31" value="" style="endArrow=classic;html=1;rounded=0;exitX=0.5;exitY=1;exitDx=0;exitDy=0;entryX=0.5;entryY=0;entryDx=0;entryDy=0;edgeStyle=orthogonalEdgeStyle;" edge="1" parent="WIyWlLk6GJQsqaUBKTNV-1" source="eHA6sxWB_o8vhbipbkf3-26" target="eHA6sxWB_o8vhbipbkf3-29">
          <mxGeometry width="50" height="50" relative="1" as="geometry">
            <mxPoint x="810" y="540" as="sourcePoint" />
            <mxPoint x="860" y="490" as="targetPoint" />
          </mxGeometry>
        </mxCell>
        <mxCell id="eHA6sxWB_o8vhbipbkf3-32" value="Fin" style="ellipse;whiteSpace=wrap;html=1;" vertex="1" parent="WIyWlLk6GJQsqaUBKTNV-1">
          <mxGeometry x="720" y="615" width="80" height="40" as="geometry" />
        </mxCell>
        <mxCell id="eHA6sxWB_o8vhbipbkf3-33" value="" style="endArrow=classic;html=1;rounded=0;exitX=0.5;exitY=1;exitDx=0;exitDy=0;entryX=0.5;entryY=0;entryDx=0;entryDy=0;" edge="1" parent="WIyWlLk6GJQsqaUBKTNV-1" source="eHA6sxWB_o8vhbipbkf3-29" target="eHA6sxWB_o8vhbipbkf3-32">
          <mxGeometry width="50" height="50" relative="1" as="geometry">
            <mxPoint x="810" y="640" as="sourcePoint" />
            <mxPoint x="860" y="590" as="targetPoint" />
          </mxGeometry>
        </mxCell>
        <mxCell id="eHA6sxWB_o8vhbipbkf3-34" value="" style="endArrow=classic;html=1;rounded=0;exitX=0.5;exitY=1;exitDx=0;exitDy=0;entryX=0.5;entryY=0;entryDx=0;entryDy=0;" edge="1" parent="WIyWlLk6GJQsqaUBKTNV-1" source="eHA6sxWB_o8vhbipbkf3-19" target="eHA6sxWB_o8vhbipbkf3-20">
          <mxGeometry width="50" height="50" relative="1" as="geometry">
            <mxPoint x="570" y="460" as="sourcePoint" />
            <mxPoint x="620" y="410" as="targetPoint" />
          </mxGeometry>
        </mxCell>
        <mxCell id="eHA6sxWB_o8vhbipbkf3-35" value="&lt;font style=&quot;font-size: 18px;&quot;&gt;function comparar2Numeros(a, b){&lt;/font&gt;&lt;div style=&quot;font-size: 18px;&quot;&gt;&lt;font style=&quot;font-size: 18px;&quot;&gt;&lt;span style=&quot;white-space: pre;&quot;&gt;&#x9;&lt;/span&gt;let mayor;&lt;br&gt;&lt;span style=&quot;white-space: pre;&quot;&gt;&#x9;&lt;/span&gt;if(a &amp;gt; b){&lt;br&gt;&lt;/font&gt;&lt;/div&gt;&lt;div style=&quot;font-size: 18px;&quot;&gt;&lt;font style=&quot;font-size: 18px;&quot;&gt;&lt;span style=&quot;white-space: pre;&quot;&gt;&#x9;&lt;/span&gt;&lt;span style=&quot;white-space: pre;&quot;&gt;&#x9;&lt;/span&gt;mayor = a;&lt;br&gt;&lt;/font&gt;&lt;/div&gt;&lt;div style=&quot;font-size: 18px;&quot;&gt;&lt;font style=&quot;font-size: 18px;&quot;&gt;&lt;span style=&quot;white-space: pre;&quot;&gt;&#x9;&lt;/span&gt;else{&lt;br&gt;&lt;/font&gt;&lt;/div&gt;&lt;div style=&quot;font-size: 18px;&quot;&gt;&lt;font style=&quot;font-size: 18px;&quot;&gt;&lt;span style=&quot;white-space: pre;&quot;&gt;&#x9;&lt;/span&gt;&lt;span style=&quot;white-space: pre;&quot;&gt;&#x9;&lt;/span&gt;mayor = b;&lt;br&gt;&lt;/font&gt;&lt;/div&gt;&lt;div style=&quot;font-size: 18px;&quot;&gt;&lt;font style=&quot;font-size: 18px;&quot;&gt;&lt;span style=&quot;white-space: pre;&quot;&gt;&#x9;&lt;/span&gt;}&lt;br&gt;&lt;/font&gt;&lt;/div&gt;&lt;div style=&quot;font-size: 18px;&quot;&gt;&lt;font style=&quot;font-size: 18px;&quot;&gt;&lt;span style=&quot;white-space: pre;&quot;&gt;&#x9;&lt;/span&gt;return mayor;&lt;br&gt;&lt;/font&gt;&lt;/div&gt;&lt;div style=&quot;font-size: 18px;&quot;&gt;&lt;font style=&quot;font-size: 18px;&quot;&gt;}&lt;/font&gt;&lt;/div&gt;" style="text;html=1;align=left;verticalAlign=middle;whiteSpace=wrap;rounded=0;" vertex="1" parent="WIyWlLk6GJQsqaUBKTNV-1">
          <mxGeometry x="1010" y="210" width="300" height="180" as="geometry" />
        </mxCell>
      </root>
    </mxGraphModel>
  </diagram>
  <diagram id="QOvHLJQtGXk2pDM8dO8d" name="Ejercicio2-SumaDeArreglo">
    <mxGraphModel dx="1253" dy="1878" grid="1" gridSize="10" guides="1" tooltips="1" connect="1" arrows="1" fold="1" page="1" pageScale="1" pageWidth="827" pageHeight="1169" math="0" shadow="0">
      <root>
        <mxCell id="0" />
        <mxCell id="1" parent="0" />
        <mxCell id="D7F654N4vyFPkGI-e9II-1" value="&lt;font style=&quot;font-size: 24px;&quot;&gt;Ejercicio 2: Calcular la suma de un arreglo&lt;br&gt;let arreglo = [ 9, 10, &#39;programación&#39;, true, [1, 0] ]&lt;br&gt;&amp;nbsp; &amp;nbsp; &amp;nbsp; &amp;nbsp; &amp;nbsp; &amp;nbsp; &amp;nbsp; &amp;nbsp; &amp;nbsp; &amp;nbsp; &amp;nbsp; 0&amp;nbsp; &amp;nbsp; &amp;nbsp;1&amp;nbsp; &amp;nbsp; &amp;nbsp; &amp;nbsp; &amp;nbsp; &amp;nbsp; &amp;nbsp; &amp;nbsp; &amp;nbsp; &amp;nbsp; &amp;nbsp; 2&amp;nbsp; &amp;nbsp; &amp;nbsp; &amp;nbsp;3&amp;nbsp; &amp;nbsp; &amp;nbsp; &amp;nbsp;4&lt;br&gt;&lt;br&gt;arreglo[0] =&amp;gt; 9&lt;br&gt;arreglo[1] = 10&lt;br&gt;&lt;br&gt;i = 3&lt;br&gt;arreglo[i] = true&lt;br&gt;&lt;br&gt;Entradas: Un arreglo &#39;a&#39; de números enteros&lt;br&gt;Salidas: entero suma&lt;br&gt;&lt;br&gt;Proceso:&lt;br&gt;&lt;br&gt;&lt;br&gt;Pruebas de escritorio&lt;/font&gt;&lt;div&gt;&lt;font style=&quot;font-size: 24px;&quot;&gt;&lt;br&gt;a = [5, 6, 7]&lt;br&gt;suma = 18&lt;br&gt;&lt;br&gt;suma = 0&lt;br&gt;i = 0&lt;br&gt;&lt;br&gt;a.length = 3&lt;br&gt;i &amp;lt; a.length&lt;br&gt;0 &amp;lt; 3&lt;br&gt;&lt;br&gt;suma = suma + a[i]&lt;br&gt;suma = 0 + 5&lt;br&gt;suma = 5&lt;br&gt;&lt;br&gt;i &amp;lt; a.length&lt;br&gt;1 &amp;lt; 3&lt;br&gt;&lt;br&gt;2 &amp;lt; 3&lt;br&gt;&lt;br&gt;3 &amp;lt; 3 &amp;lt;- Falso&lt;/font&gt;&lt;/div&gt;" style="text;html=1;align=left;verticalAlign=top;whiteSpace=wrap;rounded=0;" vertex="1" parent="1">
          <mxGeometry x="30" y="-220" width="220" height="1210" as="geometry" />
        </mxCell>
        <mxCell id="D7F654N4vyFPkGI-e9II-3" value="Inicio" style="ellipse;whiteSpace=wrap;html=1;" vertex="1" parent="1">
          <mxGeometry x="374" y="270" width="80" height="50" as="geometry" />
        </mxCell>
        <mxCell id="D7F654N4vyFPkGI-e9II-4" value="entrada: arreglo a" style="shape=parallelogram;perimeter=parallelogramPerimeter;whiteSpace=wrap;html=1;fixedSize=1;" vertex="1" parent="1">
          <mxGeometry x="354" y="360" width="120" height="60" as="geometry" />
        </mxCell>
        <mxCell id="D7F654N4vyFPkGI-e9II-5" value="" style="endArrow=classic;html=1;rounded=0;entryX=0.5;entryY=0;entryDx=0;entryDy=0;" edge="1" parent="1" source="D7F654N4vyFPkGI-e9II-3" target="D7F654N4vyFPkGI-e9II-4">
          <mxGeometry width="50" height="50" relative="1" as="geometry">
            <mxPoint x="390" y="480" as="sourcePoint" />
            <mxPoint x="440" y="430" as="targetPoint" />
          </mxGeometry>
        </mxCell>
        <mxCell id="D7F654N4vyFPkGI-e9II-6" value="suma = 0&lt;br&gt;i = 0" style="rounded=0;whiteSpace=wrap;html=1;" vertex="1" parent="1">
          <mxGeometry x="361" y="460" width="106" height="40" as="geometry" />
        </mxCell>
        <mxCell id="D7F654N4vyFPkGI-e9II-7" value="" style="endArrow=classic;html=1;rounded=0;exitX=0.5;exitY=1;exitDx=0;exitDy=0;entryX=0.5;entryY=0;entryDx=0;entryDy=0;" edge="1" parent="1" source="D7F654N4vyFPkGI-e9II-4" target="D7F654N4vyFPkGI-e9II-6">
          <mxGeometry width="50" height="50" relative="1" as="geometry">
            <mxPoint x="390" y="520" as="sourcePoint" />
            <mxPoint x="440" y="470" as="targetPoint" />
          </mxGeometry>
        </mxCell>
        <mxCell id="D7F654N4vyFPkGI-e9II-8" value="i &amp;lt; a.length" style="rhombus;whiteSpace=wrap;html=1;" vertex="1" parent="1">
          <mxGeometry x="374" y="544.5" width="80" height="80" as="geometry" />
        </mxCell>
        <mxCell id="D7F654N4vyFPkGI-e9II-9" value="" style="endArrow=classic;html=1;rounded=0;entryX=0.5;entryY=0;entryDx=0;entryDy=0;exitX=0.5;exitY=1;exitDx=0;exitDy=0;" edge="1" parent="1" source="D7F654N4vyFPkGI-e9II-6" target="D7F654N4vyFPkGI-e9II-8">
          <mxGeometry width="50" height="50" relative="1" as="geometry">
            <mxPoint x="390" y="520" as="sourcePoint" />
            <mxPoint x="440" y="470" as="targetPoint" />
          </mxGeometry>
        </mxCell>
        <mxCell id="D7F654N4vyFPkGI-e9II-10" value="suma = suma + a[i]&lt;br&gt;i++" style="rounded=0;whiteSpace=wrap;html=1;" vertex="1" parent="1">
          <mxGeometry x="359.5" y="670" width="109" height="40" as="geometry" />
        </mxCell>
        <mxCell id="D7F654N4vyFPkGI-e9II-11" value="" style="endArrow=classic;html=1;rounded=0;entryX=0.5;entryY=0;entryDx=0;entryDy=0;exitX=0.5;exitY=1;exitDx=0;exitDy=0;" edge="1" parent="1" source="D7F654N4vyFPkGI-e9II-8" target="D7F654N4vyFPkGI-e9II-10">
          <mxGeometry width="50" height="50" relative="1" as="geometry">
            <mxPoint x="390" y="580" as="sourcePoint" />
            <mxPoint x="440" y="530" as="targetPoint" />
          </mxGeometry>
        </mxCell>
        <mxCell id="D7F654N4vyFPkGI-e9II-13" value="Verdadero" style="edgeLabel;html=1;align=center;verticalAlign=middle;resizable=0;points=[];" vertex="1" connectable="0" parent="D7F654N4vyFPkGI-e9II-11">
          <mxGeometry x="-0.1303" y="1" relative="1" as="geometry">
            <mxPoint as="offset" />
          </mxGeometry>
        </mxCell>
        <mxCell id="D7F654N4vyFPkGI-e9II-12" value="" style="endArrow=classic;html=1;rounded=0;entryX=0;entryY=0.5;entryDx=0;entryDy=0;exitX=0.5;exitY=1;exitDx=0;exitDy=0;edgeStyle=orthogonalEdgeStyle;" edge="1" parent="1" source="D7F654N4vyFPkGI-e9II-10" target="D7F654N4vyFPkGI-e9II-8">
          <mxGeometry width="50" height="50" relative="1" as="geometry">
            <mxPoint x="320" y="680" as="sourcePoint" />
            <mxPoint x="370" y="630" as="targetPoint" />
            <Array as="points">
              <mxPoint x="414" y="770" />
              <mxPoint x="260" y="770" />
              <mxPoint x="260" y="585" />
            </Array>
          </mxGeometry>
        </mxCell>
        <mxCell id="D7F654N4vyFPkGI-e9II-14" value="imprimir suma" style="shape=parallelogram;perimeter=parallelogramPerimeter;whiteSpace=wrap;html=1;fixedSize=1;" vertex="1" parent="1">
          <mxGeometry x="354" y="820" width="120" height="30" as="geometry" />
        </mxCell>
        <mxCell id="D7F654N4vyFPkGI-e9II-15" value="" style="endArrow=classic;html=1;rounded=0;entryX=0.5;entryY=0;entryDx=0;entryDy=0;exitX=1;exitY=0.5;exitDx=0;exitDy=0;edgeStyle=orthogonalEdgeStyle;" edge="1" parent="1" source="D7F654N4vyFPkGI-e9II-8" target="D7F654N4vyFPkGI-e9II-14">
          <mxGeometry width="50" height="50" relative="1" as="geometry">
            <mxPoint x="320" y="740" as="sourcePoint" />
            <mxPoint x="370" y="690" as="targetPoint" />
            <Array as="points">
              <mxPoint x="600" y="585" />
              <mxPoint x="600" y="790" />
              <mxPoint x="414" y="790" />
            </Array>
          </mxGeometry>
        </mxCell>
        <mxCell id="D7F654N4vyFPkGI-e9II-16" value="Falso" style="edgeLabel;html=1;align=center;verticalAlign=middle;resizable=0;points=[];" vertex="1" connectable="0" parent="D7F654N4vyFPkGI-e9II-15">
          <mxGeometry x="-0.1796" y="-1" relative="1" as="geometry">
            <mxPoint as="offset" />
          </mxGeometry>
        </mxCell>
        <mxCell id="D7F654N4vyFPkGI-e9II-17" value="Fin" style="ellipse;whiteSpace=wrap;html=1;" vertex="1" parent="1">
          <mxGeometry x="371" y="900" width="86" height="40" as="geometry" />
        </mxCell>
        <mxCell id="D7F654N4vyFPkGI-e9II-18" value="" style="endArrow=classic;html=1;rounded=0;entryX=0.5;entryY=0;entryDx=0;entryDy=0;exitX=0.5;exitY=1;exitDx=0;exitDy=0;" edge="1" parent="1" source="D7F654N4vyFPkGI-e9II-14" target="D7F654N4vyFPkGI-e9II-17">
          <mxGeometry width="50" height="50" relative="1" as="geometry">
            <mxPoint x="320" y="850" as="sourcePoint" />
            <mxPoint x="370" y="800" as="targetPoint" />
          </mxGeometry>
        </mxCell>
      </root>
    </mxGraphModel>
  </diagram>
  <diagram id="2e4pUDR_bTjII_xRHnvO" name="Página-3">
    <mxGraphModel dx="501" dy="284" grid="1" gridSize="10" guides="1" tooltips="1" connect="1" arrows="1" fold="1" page="1" pageScale="1" pageWidth="827" pageHeight="1169" math="0" shadow="0">
      <root>
        <mxCell id="0" />
        <mxCell id="1" parent="0" />
        <mxCell id="uU_9XLPaCcPymiuv1Kbc-1" value="Ejercicio 3: Diseñar un algoritmo para obtener el número mayor de un arreglo.&lt;br&gt;[5, 4, 9, 18, 0, 32, 1]&lt;br&gt;return 32" style="text;html=1;align=center;verticalAlign=middle;whiteSpace=wrap;rounded=0;" vertex="1" parent="1">
          <mxGeometry x="40" y="40" width="660" height="30" as="geometry" />
        </mxCell>
      </root>
    </mxGraphModel>
  </diagram>
</mxfile>
